<svg width="24.000000000000007" height="24.000000000000007" xmlns="http://www.w3.org/2000/svg" fill="none">
 <g>
  <title>Layer 1</title>
  <path id="svg_8" d="m21.6353,16.11263l-0.0264,0.00939l0,-0.01877l0.0264,0.00938zm-0.01917,-0.04626l-0.01203,0.02531l-0.01327,-0.01328l0.0253,-0.01203zm-0.04625,-0.01916l0.00939,0.0264l-0.01878,0l0.00939,-0.0264zm-0.04626,0.01916l0.02531,0.01203l-0.01328,0.01328l-0.01203,-0.02531zm-0.01916,0.04626l0.0264,-0.00938l0,0.01877l-0.0264,-0.00939zm0.01916,0.04626l0.01203,-0.0253l0.01328,0.01328l-0.02531,0.01203l0,0zm0.04626,0.01917l-0.00939,-0.02641l0.01878,0l-0.00939,0.02641zm0.04625,-0.01917l-0.0253,-0.01202l0.01327,-0.01328l0.01203,0.0253zm-0.07896,-0.04626l0,0c0,-0.01806 0.01465,-0.03271 0.03271,-0.03271c0.01806,0 0.03271,0.01465 0.03271,0.03271c0,0.01807 -0.01465,0.03271 -0.03271,0.03271c-0.01807,0 -0.03271,-0.01465 -0.03271,-0.03271l0,0z" stroke-width="0" fill="#CFCA6D"/>
  <path id="svg_9" d="m23.89698,11.86151l-4.79463,1.70568l0,-3.40955l4.79463,1.70387zm-3.4813,-8.40218l-2.18433,4.59754l-2.41048,-2.4123l4.59481,-2.18524zm-8.40127,-3.47949l1.70478,4.79553l-3.41046,0l1.70568,-4.79553zm-8.40218,3.47949l4.59663,2.18524l-2.41139,2.4123l-2.18524,-4.59754zm-3.4804,8.40218l4.79553,-1.70387l0,3.40955l-4.79553,-1.70568zm3.4804,8.40218l2.18524,-4.59572l2.41139,2.41139l-4.59663,2.18433l0,0zm8.40218,3.48221l-1.70568,-4.79644l3.41046,0l-1.70478,4.79644zm8.40127,-3.48221l-4.59572,-2.18342l2.41048,-2.41139l2.18524,4.59481zm-14.3421,-8.40218l0,0c0,-3.28058 2.66025,-5.94083 5.94174,-5.94083c3.28058,0 5.94174,2.66025 5.94174,5.94083c0,3.28149 -2.66116,5.94174 -5.94174,5.94174c-3.2824,0 -5.94174,-2.66025 -5.94174,-5.94174l0,0z" stroke-width="0" fill="#ffff00"/>
 </g>

</svg>